<svg id="Layer_1" data-name="Layer 1" xmlns="http://www.w3.org/2000/svg" viewBox="0 0 800 800"><defs><style>.cls-1{fill:#fff;}</style></defs><title>vectors</title><path class="cls-1" d="M399.24,54.26c69.93,0,139.87-.11,209.8,0,66.61.12,122.31,40.6,142.88,103.68a144,144,0,0,1,6.94,44.69c.1,77.92.26,155.85,0,233.76-.29,83.3-65.92,148.52-149.4,148.77q-79.31.22-158.6-.09c-7.06,0-12.57,1.83-17.85,6.55Q348,667.58,262.75,743.2c-3.62,3.21-7.52,9.6-11.5,8-4.61-1.82-1.87-8.87-1.89-13.55-.19-47.09-.14-94.17-.14-141.25,0-11.21,0-11-11.51-11.24-22.82-.45-45.65,1-68.48-1.17C107.56,578.11,54.17,530.14,41,468.76c-3.8-17.71-3.26-35.56-3.27-53.43q-.06-104.9,0-209.8c.11-75.69,47.88-134.11,122.12-148.79,23.1-4.57,46.66-2.38,70-2.47,56.44-.23,112.88-.08,169.33-.08ZM631.31,319.74c-.12-29.28-22.09-51.63-50.75-51.6-29.27,0-51.3,22.37-51.23,52,.06,28.52,23,50.71,52,50.43A50.42,50.42,0,0,0,631.31,319.74Zm-360.42.18c0-29-22.34-51.82-50.71-51.8-29.34,0-51.21,22.14-51.28,51.86-.07,28,22.56,50.5,51,50.75C247.82,371,270.89,348,270.89,319.92Zm180.23-.7a50.72,50.72,0,0,0-50.49-51.13c-28.75-.11-51.48,22.34-51.55,50.92-.07,28.8,22.26,51.5,50.9,51.75C428.3,371,451.11,348,451.12,319.22Z"/></svg>