<svg id="Layer_1" data-name="Layer 1" xmlns="http://www.w3.org/2000/svg" viewBox="0 0 800 800"><title>vectors</title><g id="XqrXQu.tif"><path d="M220.55,340c0-15.95,9.24-30.18,24.1-35.91,15.8-6.09,30.34-3.22,42.41,8.69,26.37,26,52.45,52.35,78.64,78.57,16.46,16.49,30.16,16.48,46.83-.09q39.17-38.94,78.33-77.88c11-10.91,24.33-14.24,39.09-10.09,14.3,4,23.62,13.62,27,28.17,3.24,14.12-.24,27-10.37,37.24q-64.87,65.28-130.36,130c-15.46,15.22-39.41,14.6-54.88-.78q-64-63.65-127.73-127.62C225.21,362,220.3,352.1,220.55,340Z"/><path d="M768,378.8v48.54c-1,4.07-2.22,8.09-2.8,12.21C744,590.3,661.2,691.87,519,744.23c-27.83,10.24-58.3,13.32-87.55,19.7h-55c-7.92-1.21-15.84-2.46-23.77-3.62C152.73,731.24,11.24,544.13,44.12,345.9c24.6-148.32,112-246.93,255.31-294,24.76-8.13,51.27-10.91,77-16.16h55c3.6.89,7.15,2.25,10.81,2.61,145.59,14.4,270.87,119,310.22,260.3C759.72,324.78,762.92,352.05,768,378.8ZM107.23,397.72C105.42,567.07,247.17,701,411.75,696.47,574.35,692,707.11,552.82,700.5,386.54c-6.27-157.89-142.7-287-304.09-283.11C236.37,107.24,103.41,242.55,107.23,397.72Z"/></g></svg>