<svg id="Layer_1" data-name="Layer 1" xmlns="http://www.w3.org/2000/svg" viewBox="0 0 800 800"><defs><style>.cls-1{fill:#46f0f0;}.cls-2{fill:#f032e6;}.cls-3{fill:#ffe119;}</style></defs><title>vectors</title><path class="cls-1" d="M36.36,399.59q0-34.14,25.32-59.46t64.17-25.32q38.86,0,65.35,24.14t26.5,60.64q0,36.51-26.5,60.65t-65.35,24.13q-38.85,0-64.17-25.32T36.36,399.59Z"/><path class="cls-2" d="M309.51,399.59q0-34.14,25.32-59.46T399,314.81q38.87,0,65.35,24.14t26.5,60.64q0,36.51-26.5,60.65T399,484.37q-38.85,0-64.17-25.32T309.51,399.59Z"/><path class="cls-3" d="M582.66,399.59q0-34.14,25.32-59.46t64.17-25.32q38.86,0,65.36,24.14T764,399.59q0,36.51-26.49,60.65t-65.36,24.13q-38.85,0-64.17-25.32T582.66,399.59Z"/></svg>