<svg id="Layer_1" data-name="Layer 1" xmlns="http://www.w3.org/2000/svg" viewBox="0 0 800 800"><defs><style>.cls-1{fill:#fff;}</style></defs><title>vectors</title><path class="cls-1" d="M514.08,330.41c18.87,0,36.65,0,54.44,0,29,.07,57.92,0,86.87.33,21.17.23,41,5.68,58.22,18.26,36.17,26.34,36.93,78.76,1.75,106.32-1.1.86-2.19,1.73-3.74,3,17.35,14.25,26.54,32,23.93,54.42-2.52,21.71-11.7,39.45-32.39,50,11.75,15,14.35,31.71,11.34,49.68-3.07,18.38-13.66,31.18-30.14,39.93,8.71,12.79,10.61,26.51,7.63,41-4.75,23.17-19.29,36.84-42.78,40a158,158,0,0,1-21,1.41c-108.65.09-217.29-.17-325.93.27-20.07.08-34.46-9.41-47.66-22.5-1.06-1.05-1.39-3.24-1.39-4.89q-.09-160.27.11-320.53c0-11.19,7-19.89,15-27.14,16.86-15.41,34.2-30.29,51.12-45.63q34.76-31.53,69.18-63.44c46.72-43.24,77.52-96.23,95.73-156.9,1.13-3.78,2.39-7.53,3.66-11.27,8.83-26,29.51-32.35,51.72-28.63,18,3,31.61,13.28,40.87,29,14,23.77,16.32,49.49,12.17,76.15-5.47,35.17-20,67-36.8,97.89-12.23,22.39-25.32,44.32-38,66.45C516.91,325.4,515.87,327.25,514.08,330.41Z"/><path class="cls-1" d="M229.64,552.1c0,52.87-.27,105.74.2,158.6.12,13.64-8.93,25.56-25.44,25.3-40.26-.65-80.55-.2-120.83-.21-16.1,0-24.58-8.49-24.58-24.6V392.9C59,376.57,67.56,368,83.91,368q60.42,0,120.84,0c16.28,0,24.89,8.69,24.89,25Q229.66,472.54,229.64,552.1Z"/></svg>