<svg id="Layer_1" data-name="Layer 1" xmlns="http://www.w3.org/2000/svg" viewBox="0 0 800 800"><defs><style>.cls-1{fill:#fff;}.cls-2{fill:#46f0f0;}.cls-3{fill:#f032e6;}.cls-4{fill:#ffe119;}</style></defs><title>vectors</title><path class="cls-1" d="M35.61,331.57h45.8a92,92,0,0,1,19,1.92,47,47,0,0,1,16.07,6.45,33.24,33.24,0,0,1,11.06,12.12q4.14,7.6,4.14,19,0,12.89-4.43,20.78A31.72,31.72,0,0,1,115.28,404a49.64,49.64,0,0,1-17.41,5.87,134.32,134.32,0,0,1-20.69,1.54H59.86v56.38H35.61Zm38.88,59.08q5.19,0,10.77-.39A32.79,32.79,0,0,0,95.56,388a18.21,18.21,0,0,0,7.69-5.77q3-3.85,3-10.78,0-6.34-2.7-10.1a17.74,17.74,0,0,0-6.92-5.77,29.11,29.11,0,0,0-9.43-2.6,89.7,89.7,0,0,0-10-.58H59.86v38.3Z"/><path class="cls-2" d="M148.19,344.08a13.3,13.3,0,0,1,4.13-9.72,14.22,14.22,0,0,1,10.49-4.14,15.27,15.27,0,0,1,10.68,3.95,13.51,13.51,0,0,1,0,19.82,15.26,15.26,0,0,1-10.68,3.94,14.21,14.21,0,0,1-10.49-4.13A13.3,13.3,0,0,1,148.19,344.08Z"/><rect class="cls-1" x="151.46" y="375.44" width="23.09" height="92.37"/><path class="cls-1" d="M264.22,403.16a36.63,36.63,0,0,0-8.46-6.74,18.19,18.19,0,0,0-9-2.5,26.4,26.4,0,0,0-19.92,8.47,25.87,25.87,0,0,0-5.38,8.85,30.41,30.41,0,0,0,0,20.78,25.87,25.87,0,0,0,5.38,8.85,26.4,26.4,0,0,0,19.92,8.47,23,23,0,0,0,10-2.21,21.92,21.92,0,0,0,7.89-6.45L280,457.23a35.36,35.36,0,0,1-8,6,55.13,55.13,0,0,1-9.14,4.05,56.74,56.74,0,0,1-8.86,2.21,47.29,47.29,0,0,1-7.31.67,55.43,55.43,0,0,1-19.63-3.46,47.07,47.07,0,0,1-16-9.82,46.56,46.56,0,0,1-10.68-15.29,52.33,52.33,0,0,1,0-39.84,46.7,46.7,0,0,1,10.68-15.3,47.2,47.2,0,0,1,16-9.81,55.43,55.43,0,0,1,19.63-3.46,50.34,50.34,0,0,1,17.8,3.36,40.57,40.57,0,0,1,15.68,10.68Z"/><path class="cls-1" d="M283.08,352V332.4h19.05V305.65h23.09V332.4h25.41V352H325.22v83.45q0,6.93,2.6,11t10.3,4a37.26,37.26,0,0,0,6.73-.67,14.15,14.15,0,0,0,5.78-2.21V467a29.67,29.67,0,0,1-8.95,2.41,74.77,74.77,0,0,1-9.34.67q-9.22,0-15.1-2a19.89,19.89,0,0,1-9.24-6.16,23.31,23.31,0,0,1-4.62-10.29,72.45,72.45,0,0,1-1.25-14.24V352Z"/><path class="cls-1" d="M453,467.81H431.06V453h-.38a32.54,32.54,0,0,1-10,12q-6.74,5.1-18.28,5.1a37.19,37.19,0,0,1-15.69-3,28.26,28.26,0,0,1-10.48-8.08,31.47,31.47,0,0,1-5.78-11.65,53.27,53.27,0,0,1-1.73-13.66V375.44H391.8v46.77c0,2.56.13,5.42.39,8.56a30.56,30.56,0,0,0,2,8.85,17,17,0,0,0,5,6.93q3.38,2.79,9.53,2.79a22,22,0,0,0,9.72-1.93,18.7,18.7,0,0,0,6.54-5.19,20.65,20.65,0,0,0,3.75-7.51,33.45,33.45,0,0,0,1.16-8.85V375.44H453Z"/><path class="cls-1" d="M479.17,375.44h23.09v14.63h.38a29.08,29.08,0,0,1,11-12.51A30.35,30.35,0,0,1,530,373.14a21.84,21.84,0,0,1,4.14.38c1.34.26,2.72.58,4.13,1V396.8c-1.92-.51-3.81-.92-5.67-1.25a33.4,33.4,0,0,0-5.49-.48q-8.07,0-13,3a23.61,23.61,0,0,0-7.5,6.83,22.57,22.57,0,0,0-3.46,7.69,29,29,0,0,0-.87,5.78v49.45H479.17Z"/><path class="cls-1" d="M551.14,344.08a13.3,13.3,0,0,1,4.13-9.72,14.22,14.22,0,0,1,10.49-4.14,15.27,15.27,0,0,1,10.68,3.95,13.51,13.51,0,0,1,0,19.82,15.26,15.26,0,0,1-10.68,3.94,14.21,14.21,0,0,1-10.49-4.13A13.3,13.3,0,0,1,551.14,344.08Zm3.27,31.36H577.5v92.37H554.41Z"/><path class="cls-1" d="M612.33,395.07H593.28V375.44h19.05V362.36a102.65,102.65,0,0,1,1.35-17.42,33.82,33.82,0,0,1,5.1-13.37A24,24,0,0,1,629.26,323q6.74-3,17.51-3a74.5,74.5,0,0,1,14.63,1.35L659.86,341c-1.67-.39-3.27-.71-4.81-1a28.92,28.92,0,0,0-4.81-.39,16.5,16.5,0,0,0-7.7,1.54,11.83,11.83,0,0,0-4.52,4.14,15.12,15.12,0,0,0-2.12,6.06,53.32,53.32,0,0,0-.48,7.31v16.74h21.36v19.63H635.42v72.74H612.33Z"/><path class="cls-1" d="M659.28,375.44h25.4l25.79,64.08h.38L734,375.44h24L714.32,487.63a70.71,70.71,0,0,1-5.49,11.45,33.12,33.12,0,0,1-7,8.28,26.54,26.54,0,0,1-9.53,5A46.48,46.48,0,0,1,679.1,514a68.34,68.34,0,0,1-17.7-2.31l2.88-20.79a47.62,47.62,0,0,0,5.68,1.64,27.39,27.39,0,0,0,6.06.68,27.71,27.71,0,0,0,7.12-.78,13,13,0,0,0,4.91-2.4,13.12,13.12,0,0,0,3.37-4.23c.89-1.74,1.86-3.82,2.88-6.26l4.43-11Z"/><path class="cls-3" d="M192.83,344.08a13.3,13.3,0,0,1,4.13-9.72,14.22,14.22,0,0,1,10.49-4.14,15.29,15.29,0,0,1,10.68,3.95,13.51,13.51,0,0,1,0,19.82,15.28,15.28,0,0,1-10.68,3.94A14.21,14.21,0,0,1,197,353.8,13.3,13.3,0,0,1,192.83,344.08Z"/><path class="cls-4" d="M237.46,344.08a13.31,13.31,0,0,1,4.14-9.72,14.22,14.22,0,0,1,10.49-4.14,15.29,15.29,0,0,1,10.68,3.95,13.51,13.51,0,0,1,0,19.82,15.28,15.28,0,0,1-10.68,3.94,14.21,14.21,0,0,1-10.49-4.13A13.31,13.31,0,0,1,237.46,344.08Z"/><rect class="cls-1" x="329.57" y="325.54" width="17.54" height="4.38"/><rect class="cls-4" x="305.66" y="308" width="17.54" height="9.37"/></svg>